# xmcd
#
# Track frame offsets:
#	150
#	16828
#	35134
#	56531
#	71912
#	90516
#	109811
#	124011
#	144927
#	147861
#	168243
#	184741
#
# Disc length: 2656 seconds
# Revision: 0
# Processed by: cddbd v1.5.2PL0 Copyright (c) Steve Scherf et al.
# Submitted via: dBpowerAMP V12.0
#
DISCID=a30a5e0c
DTITLE=Ryebender - Hollow and Drifting
DYEAR=2008
DGENRE=Country
TTITLE0=I Was Wrong
TTITLE1=One Horse Town
TTITLE2=Gravity
TTITLE3=Windmills
TTITLE4=Whiskey and Caffeine
TTITLE5=Radio Dial
TTITLE6=Your Time Has Come and Gone
TTITLE7=Drunk All the Time
TTITLE8=Nocturne for Ger
TTITLE9=Anna
TTITLE10=Starbound
TTITLE11=Hollow and Drifting
EXTD=
EXTT0=
EXTT1=
EXTT2=
EXTT3=
EXTT4=
EXTT5=
EXTT6=
EXTT7=
EXTT8=
EXTT9=
EXTT10=
EXTT11=
PLAYORDER=
